<?xml version="1.0" encoding="utf-8"?>
<!-- Generator: Adobe Illustrator 18.0.0, SVG Export Plug-In . SVG Version: 6.00 Build 0)  -->
<!DOCTYPE svg PUBLIC "-//W3C//DTD SVG 1.1//EN" "http://www.w3.org/Graphics/SVG/1.1/DTD/svg11.dtd">

<svg version="1.1" id="Layer_1" xmlns="http://www.w3.org/2000/svg" xmlns:xlink="http://www.w3.org/1999/xlink" x="0px" y="0px"
   width="94px"
   height="71.6px"
	 viewBox="0 0 94 71.6" enable-background="new 0 0 94 71.6" xml:space="preserve">
<rect
   id="rect3"
   display="none"
   fill="#FFFFFF"
   stroke="#000000"
   width="96"
   height="96" />
<path fill-rule="evenodd" clip-rule="evenodd" d="M0,14.5C0.6,22,2.4,66.8,2.4,66.8s-0.6,4.8,5.1,4.8c5.7,0,79.7,0,79.7,0
	s5,0.5,5-4.1c0-4.6,1.8-53.6,1.8-53.6s0-4.4-3.8-4.4c0-3.8-1.6-6.8-5.1-6.8c-3.5,0-54,0-54,0S30.2,0,27.5,0c-2.7,0-20,0-20,0
	S4.1,0.2,4.1,3.2c0,3.1-0.3,6.1-0.3,6.1S-0.4,8.8,0,14.5z"/>
</svg>
